<mxfile host="app.diagrams.net" modified="2023-10-20T01:09:54.944Z" agent="Mozilla/5.0 (Windows NT 10.0; Win64; x64) AppleWebKit/537.36 (KHTML, like Gecko) Chrome/118.0.0.0 Safari/537.36" version="22.0.5" etag="VIDfg0Mk-Nj3qWDKQJ-P" type="github">
  <diagram name="第 1 页" id="em3QYvc0h61_NDB3ej9P">
    <mxGraphModel>
      <root>
        <mxCell id="0" />
        <mxCell id="1" parent="0" />
      </root>
    </mxGraphModel>
  </diagram>
</mxfile>
